# xmcd CD database file
#
# Track frame offsets:
#	150
#	14372
#	25477
#	40162
#	57443
#	71021
#	84301
#	95477
#	109729
#	126381
#	147219
#	159747
#	175243
#	188972
#	209225
#	227358
#
# Disc length: 3151 seconds
#
# Revision: 1
# Processed by: cddbd v1.5.1PL0 Copyright (c) Steve Scherf et al.
# Submitted via: CDex 1.51
#
DISCID=e50c4d10
DTITLE=Hayseed Dixie - A hot piece of grass
DYEAR=2005
DGENRE=Country
TTITLE0=HAYSEED DIXIE - Black Dog
TTITLE1=HAYSEED DIXIE - Blind Beggar Breakdown
TTITLE2=HAYSEED DIXIE - Dueling Banjos
TTITLE3=HAYSEED - DIXIE.Holiday
TTITLE4=HAYSEED DIXIE - Kirby Hill
TTITLE5=HAYSEED - DIXIE.Marijuana
TTITLE6=HAYSEED DIXIE - Moonshiner´s Daughter
TTITLE7=HAYSEED DIXIE - Mountain Man
TTITLE8=HAYSEED DIXIE - Rockin´In The Free World
TTITLE9=HAYSEED - DIXIE.Roses
TTITLE10=HAYSEED DIXIE - Runnin´With the Devil
TTITLE11=HAYSEED DIXIE - This Fire
TTITLE12=HAYSEED DIXIE - Uncle Virgil
TTITLE13=HAYSEED DIXIE - War Pig
TTITLE14=HAYSEED DIXIE - Whole Lotta Love
TTITLE15=HAYSEED DIXIE - Wish I Was You
EXTD=YEAR: 2005
EXTT0=
EXTT1=
EXTT2=
EXTT3=
EXTT4=
EXTT5=
EXTT6=
EXTT7=
EXTT8=
EXTT9=
EXTT10=
EXTT11=
EXTT12=
EXTT13=
EXTT14=
EXTT15=
PLAYORDER=
